# xmcd CD database file
#
# Track frame offsets:
#	150
#	22702
#	41545
#
# Disc length: 851 seconds
#
# Revision: 0
# Processed by: cddbd v1.5PL3 Copyright (c) Steve Scherf et al.
# Submitted via: CDex 1.51
#
DISCID=14035103
DTITLE=FANATIC◇CRISIS - Rainy merry-go-round
DYEAR=1998
DGENRE=Rock
TTITLE0=Rainy merry-go-round
TTITLE1=dear myself
TTITLE2=Rainy merry-go-round [Vox Less Version]
EXTD=YEAR: 1998
EXTT0=
EXTT1=
EXTT2=
PLAYORDER=
